<?xml version="1.0" encoding="utf-8"?>
<!-- Generator: Adobe Illustrator 26.2.1, SVG Export Plug-In . SVG Version: 6.00 Build 0)  -->
<svg version="1.1" id="Layer_1" xmlns="http://www.w3.org/2000/svg" xmlns:xlink="http://www.w3.org/1999/xlink" x="0px" y="0px"
	 viewBox="0 0 158.8 42.7" style="enable-background:new 0 0 158.8 42.7;" xml:space="preserve">
<style type="text/css">
	.st0{fill:#FFFFFF;}
</style>
<g id="Group_2315" transform="translate(-71.664 -56.346)">
	<g id="Path_4740">
		<rect x="108.9" y="97.1" class="st0" width="35.2" height="2"/>
	</g>
	<g id="Path_4741">
		<path class="st0" d="M71.7,98h13.8c12.7,0,21.1-7.7,21.1-20.9c0-13.2-8.4-20.8-21.1-20.8H71.7V98z M77.5,92.9V61.4h7.6
			c9.3,0,15.5,5.5,15.5,15.7c0,10.3-6.1,15.8-15.5,15.8H77.5z"/>
	</g>
	<g id="Path_4742">
		<rect x="195.3" y="97.1" class="st0" width="35.2" height="2"/>
	</g>
	<g id="Path_4743">
		<path class="st0" d="M151.8,98.2h18.6c13.9,0,17.4-5.8,17.4-11.8c0-5.1-4.1-9.4-12.5-10v-0.2c8.3-1.5,10.5-6.2,10.5-9.6
			c0-5.3-3.1-10-15.5-10h-18.5v3.3h7.1v35.1h-7.1V98.2z M164.2,74.7v-15h6.6c7,0,9.2,2.6,9.2,6.9c0,4.9-2.7,8.1-9.4,8.1H164.2z
			 M164.2,94.9V77.8h6.1c7.9,0,11.5,3.3,11.5,8.2c0,6.2-3.1,8.9-11.3,8.9L164.2,94.9z"/>
	</g>
</g>
</svg>
