<svg xmlns="http://www.w3.org/2000/svg" width="158.832" height="42.739" viewBox="0 0 158.832 42.739">
  <g id="Group_2315" data-name="Group 2315" transform="translate(-71.664 -56.346)">
    <path id="Path_4740" data-name="Path 4740" d="M0,0H35.239" transform="translate(108.904 98.085)" fill="none" stroke="#000" stroke-width="2"/>
    <path id="Path_4741" data-name="Path 4741" d="M5.664,0H19.47C32.214,0,40.592-7.67,40.592-20.886c0-13.157-8.378-20.768-21.122-20.768H5.664ZM11.5-5.074V-36.58h7.552c9.322,0,15.517,5.487,15.517,15.694,0,10.266-6.136,15.812-15.517,15.812Z" transform="translate(66 98)"/>
    <path id="Path_4742" data-name="Path 4742" d="M0,0H35.239" transform="translate(195.258 98.085)" fill="none" stroke="#000" stroke-width="2"/>
    <path id="Path_4743" data-name="Path 4743" d="M2.048,0h18.56C34.5,0,38.016-5.824,38.016-11.84c0-5.12-4.1-9.408-12.48-10.048v-.192c8.256-1.472,10.5-6.208,10.5-9.6,0-5.312-3.072-10.048-15.488-10.048H2.048v3.264h7.1V-3.328h-7.1Zm12.48-23.488V-38.464H21.12c7.04,0,9.152,2.56,9.152,6.912,0,4.928-2.688,8.064-9.408,8.064Zm0,20.16V-20.416h6.144c7.936,0,11.52,3.328,11.52,8.192,0,6.208-3.136,8.9-11.264,8.9Z" transform="translate(149.707 98.226)"/>
  </g>
</svg>
